<svg width="1280" height="360" viewBox="0 0 1280 360" xmlns="http://www.w3.org/2000/svg" role="img" aria-label="Nolan Cacheux — AI/ML Engineer • Enterprise Agents, RAG &amp; MLOps">
  <defs>
    <linearGradient id="bg" x1="0" y1="0" x2="1" y2="1">
      <stop offset="0%" stop-color="#071225"/>
      <stop offset="48%" stop-color="#0B3E91"/>
      <stop offset="100%" stop-color="#007BFF"/>
    </linearGradient>
    <radialGradient id="glow" cx="72%" cy="45%" r="55%">
      <stop offset="0%" stop-color="#69B7FF" stop-opacity="0.42"/>
      <stop offset="50%" stop-color="#007BFF" stop-opacity="0.16"/>
      <stop offset="100%" stop-color="#071225" stop-opacity="0"/>
    </radialGradient>
    <filter id="softShadow" x="-20%" y="-20%" width="140%" height="140%">
      <feDropShadow dx="0" dy="10" stdDeviation="14" flood-color="#020817" flood-opacity="0.36"/>
    </filter>
    <pattern id="grid" width="44" height="44" patternUnits="userSpaceOnUse">
      <path d="M 44 0 L 0 0 0 44" fill="none" stroke="#FFFFFF" stroke-opacity="0.07" stroke-width="1"/>
    </pattern>
  </defs>

  <rect width="1280" height="360" fill="url(#bg)"/>
  <rect width="1280" height="360" fill="url(#grid)"/>
  <rect width="1280" height="360" fill="url(#glow)"/>

  <g opacity="0.48" stroke="#93C5FD" stroke-width="2" fill="none">
    <path d="M818 84 C922 22 1028 48 1118 112 S1222 208 1290 162"/>
    <path d="M798 228 C910 158 1000 182 1098 242 S1210 308 1288 254" opacity="0.52"/>
    <path d="M850 308 C918 252 1010 256 1084 302" opacity="0.38"/>
  </g>

  <g transform="translate(790 62)" opacity="0.82">
    <rect x="0" y="180" width="18" height="74" rx="9" fill="#93C5FD" opacity="0.38"/>
    <rect x="36" y="132" width="18" height="122" rx="9" fill="#BFDBFE" opacity="0.46"/>
    <rect x="72" y="78" width="18" height="176" rx="9" fill="#60A5FA" opacity="0.62"/>
    <rect x="108" y="30" width="18" height="224" rx="9" fill="#FFFFFF" opacity="0.58"/>
    <rect x="144" y="92" width="18" height="162" rx="9" fill="#7DD3FC" opacity="0.52"/>
    <rect x="180" y="52" width="18" height="202" rx="9" fill="#DBEAFE" opacity="0.46"/>
    <rect x="216" y="118" width="18" height="136" rx="9" fill="#38BDF8" opacity="0.50"/>
    <rect x="252" y="72" width="18" height="182" rx="9" fill="#FFFFFF" opacity="0.42"/>
    <rect x="288" y="150" width="18" height="104" rx="9" fill="#93C5FD" opacity="0.34"/>
  </g>

  <g filter="url(#softShadow)">
    <text x="88" y="92" font-family="Helvetica" font-size="22" font-weight="800" letter-spacing="4" fill="#8EC5FF">AI/ML ENGINEERING</text>
    <text x="86" y="174" font-family="Helvetica" font-size="78" font-weight="850" fill="#FFFFFF">Nolan Cacheux</text>
    <text x="90" y="225" font-family="Helvetica" font-size="32" font-weight="650" fill="#DCEBFF">Enterprise Agents, RAG &amp; MLOps</text>
    <text x="90" y="264" font-family="Helvetica" font-size="20" font-weight="500" fill="#B9D8FF">Production AI systems: governed RAG, MLOps, cloud deployment</text>
  </g>

  <g transform="translate(88 294)" font-family="Helvetica" font-size="17" font-weight="700">
    <g><rect x="0" y="0" width="142" height="36" rx="18" fill="#FFFFFF" opacity="0.13"/><text x="22" y="24" fill="#FFFFFF">LangGraph</text></g>
    <g transform="translate(158 0)"><rect x="0" y="0" width="70" height="36" rx="18" fill="#FFFFFF" opacity="0.13"/><text x="22" y="24" fill="#FFFFFF">RAG</text></g>
    <g transform="translate(244 0)"><rect x="0" y="0" width="82" height="36" rx="18" fill="#FFFFFF" opacity="0.13"/><text x="21" y="24" fill="#FFFFFF">MLOps</text></g>
    <g transform="translate(342 0)"><rect x="0" y="0" width="70" height="36" rx="18" fill="#FFFFFF" opacity="0.13"/><text x="19" y="24" fill="#FFFFFF">GCP</text></g>
    <g transform="translate(428 0)"><rect x="0" y="0" width="70" height="36" rx="18" fill="#FFFFFF" opacity="0.13"/><text x="18" y="24" fill="#FFFFFF">AWS</text></g>
    <g transform="translate(514 0)"><rect x="0" y="0" width="82" height="36" rx="18" fill="#FFFFFF" opacity="0.13"/><text x="18" y="24" fill="#FFFFFF">Azure</text></g>
  </g>
</svg>
